<svg width="611" height="611" viewBox="0 0 611 611" fill="none" xmlns="http://www.w3.org/2000/svg">
<rect width="611" height="611" rx="91" fill="white"/>
<path d="M538.797 293.25L517.545 406.272L523.442 407.381L544.694 294.359L538.797 293.25Z" fill="#414042"/>
<path d="M206.603 86.003L186.303 213.603L280.203 188.503L310.103 68.303L428.803 101.203L401.203 253.403L240.003 313.103L306.903 430.503L344.503 331.703L461.903 363.203L344.303 545.603L141.603 485.003L141.003 484.103L77.4031 387.503L65.7031 263.303L170.903 386.403L110.503 164.903L206.603 86.003ZM285.003 193.203L179.303 221.403L198.603 100.003L116.903 167.003L183.103 409.603L73.1031 280.803L82.9031 385.603L145.203 480.203L341.803 539.003L452.703 366.903L347.903 338.803L307.803 444.103L231.603 310.303L396.203 249.203L422.303 105.303L314.403 75.303L285.003 193.203Z" fill="#414042"/>
<path d="M195.702 80.0029L283.302 187.103L426.502 99.3029L489.502 203.303L508.402 177.803L545.102 295.203L551.102 305.003L532.202 298.703L436.802 318.903L459.502 363.003L524.602 406.103L450.402 498.903L342.502 545.603L281.502 492.503L246.602 539.403L242.002 536.003L277.102 488.803L191.502 414.303L77.002 388.703L110.902 165.403L116.602 166.303L83.502 384.303L182.502 406.403L173.302 398.403L234.602 308.303L267.402 315.303L195.702 80.0029ZM282.002 194.603L209.602 106.103L273.702 316.903L346.202 332.403L402.402 320.503L419.302 297.703L392.902 246.403L444.602 263.603L485.702 208.303L424.602 107.203L282.002 194.603ZM269.202 321.703L237.102 314.803L180.802 397.503L194.102 409.103L303.202 433.403L269.202 321.703ZM532.702 274.803L506.302 190.303L492.702 208.603L532.702 274.803ZM536.502 292.003L489.002 213.603L450.402 265.503L532.602 292.903L536.502 292.003ZM441.102 268.403L404.402 256.203L423.102 292.503L441.102 268.403ZM397.202 327.403L346.202 338.203L275.602 323.103L311.502 441.103L203.202 416.903L280.602 484.203L397.202 327.403ZM521.502 295.203L446.802 270.303L426.102 298.203L434.102 313.703L521.502 295.203ZM428.202 314.903L422.202 303.303L410.802 318.603L428.202 314.903ZM431.002 320.203L405.702 325.503L284.902 488.003L343.602 539.003L446.902 494.403L516.302 407.603L455.102 367.103L431.002 320.203Z" fill="#414042"/>
<path d="M230.903 538.103C230.703 530.703 236.503 524.503 243.903 524.303C251.303 524.103 257.503 529.903 257.703 537.303C257.903 544.703 252.103 550.903 244.703 551.103C237.303 551.403 231.203 545.503 230.903 538.103Z" fill="#FAA721"/>
<path d="M131.402 476.703C134.702 470.103 142.702 467.303 149.402 470.603C156.002 473.903 158.802 481.903 155.502 488.603C152.202 495.203 144.202 498.003 137.502 494.703C130.802 491.403 128.102 483.303 131.402 476.703Z" fill="#8299CE"/>
<path d="M72.4029 375.703C78.4029 371.403 86.8029 372.703 91.1029 378.803C95.4029 384.803 94.1029 393.203 88.0029 397.503C82.0029 401.803 73.6029 400.503 69.3029 394.403C65.0029 388.403 66.3029 380.003 72.4029 375.703Z" fill="#05B3A2"/>
<path d="M67.6029 258.803C74.9029 257.803 81.7029 262.903 82.7029 270.303C83.7029 277.603 78.6029 284.403 71.2029 285.403C63.9029 286.403 57.1029 281.303 56.1029 273.903C55.2029 266.503 60.3029 259.803 67.6029 258.803Z" fill="#1891D0"/>
<path d="M118.402 153.403C125.302 156.003 128.902 163.703 126.302 170.603C123.702 177.503 116.002 181.103 109.102 178.503C102.202 175.903 98.6021 168.203 101.202 161.303C103.702 154.303 111.402 150.803 118.402 153.403Z" fill="#EE3C96"/>
<path d="M212.604 84.1029C217.504 89.6029 217.004 98.1029 211.504 103.003C206.004 107.903 197.504 107.403 192.604 101.903C187.704 96.4029 188.204 87.9029 193.704 83.0029C199.204 78.1029 207.704 78.6029 212.604 84.1029Z" fill="#86328C"/>
<path d="M328.403 67.203C330.203 74.403 325.703 81.603 318.603 83.403C311.403 85.203 304.203 80.703 302.403 73.603C300.603 66.403 305.103 59.203 312.203 57.403C319.403 55.603 326.603 60.003 328.403 67.203Z" fill="#8299CE"/>
<path d="M438.503 106.603C436.703 113.803 429.403 118.103 422.203 116.303C415.003 114.503 410.703 107.203 412.503 100.003C414.303 92.8031 421.603 88.5031 428.803 90.3031C436.003 92.1031 440.403 99.4031 438.503 106.603Z" fill="#B2D235"/>
<path d="M517.303 193.103C512.303 198.603 503.803 199.003 498.403 194.003C492.903 189.003 492.503 180.503 497.503 175.103C502.503 169.603 511.003 169.203 516.403 174.203C521.903 179.203 522.303 187.603 517.303 193.103Z" fill="#FAA721"/>
<path d="M546.202 306.503C539.202 309.003 531.602 305.403 529.102 298.403C526.602 291.403 530.202 283.803 537.202 281.303C544.202 278.803 551.802 282.403 554.302 289.403C556.802 296.303 553.202 304.003 546.202 306.503Z" fill="#B2D235"/>
<path d="M518.502 420.103C511.202 419.003 506.102 412.203 507.202 404.903C508.302 397.603 515.102 392.503 522.402 393.603C529.702 394.703 534.802 401.503 533.702 408.803C532.602 416.103 525.802 421.203 518.502 420.103Z" fill="#1891D0"/>
<path d="M440.703 507.503C434.703 503.103 433.403 494.703 437.803 488.803C442.203 482.803 450.603 481.503 456.503 485.903C462.503 490.303 463.803 498.703 459.403 504.603C455.103 510.603 446.703 511.903 440.703 507.503Z" fill="#05B3A2"/>
<path d="M331.003 548.103C327.803 541.403 330.603 533.403 337.303 530.203C344.003 527.003 352.003 529.803 355.203 536.503C358.403 543.203 355.603 551.203 348.903 554.403C342.203 557.603 334.203 554.803 331.003 548.103Z" fill="#86328C"/>
<path d="M292.204 444.603C288.204 436.203 291.704 426.103 300.104 422.103C308.504 418.103 318.604 421.603 322.604 430.003C326.604 438.403 323.104 448.503 314.704 452.503C306.304 456.503 296.204 453.003 292.204 444.603Z" fill="#EE3C96"/>
<path d="M442.102 372.403C438.102 364.003 441.602 353.903 450.002 349.903C458.402 345.903 468.502 349.403 472.502 357.803C476.502 366.203 473.002 376.303 464.602 380.303C456.202 384.303 446.102 380.803 442.102 372.403Z" fill="#8299CE"/>
<path d="M383.503 258.603C379.503 250.203 383.003 240.103 391.403 236.103C399.803 232.103 409.903 235.603 413.903 244.003C417.903 252.403 414.403 262.503 406.003 266.503C397.603 270.503 387.503 267.003 383.503 258.603Z" fill="#EE3C96"/>
<path d="M331.003 342.603C327.003 334.203 330.503 324.103 338.903 320.103C347.303 316.103 357.403 319.603 361.403 328.003C365.403 336.403 361.903 346.503 353.503 350.503C345.103 354.503 335.003 351.003 331.003 342.603Z" fill="#FAA721"/>
<path d="M267.403 198.103C263.403 189.703 266.903 179.603 275.303 175.603C283.703 171.603 293.803 175.103 297.803 183.503C301.803 191.903 298.303 202.003 289.903 206.003C281.603 210.103 271.503 206.503 267.403 198.103Z" fill="#B2D235"/>
<path d="M167.602 224.803C163.602 216.403 167.102 206.303 175.502 202.303C183.902 198.303 194.002 201.803 198.002 210.203C202.002 218.603 198.502 228.703 190.102 232.703C181.702 236.703 171.702 233.203 167.602 224.803Z" fill="#C49A6C"/>
<path d="M220.602 318.903C216.602 310.503 220.102 300.403 228.502 296.403C236.902 292.403 247.002 295.903 251.002 304.303C255.002 312.703 251.502 322.803 243.102 326.803C234.702 330.803 224.702 327.303 220.602 318.903Z" fill="#1891D0"/>
<path d="M161.903 405.303C157.903 396.903 161.403 386.803 169.803 382.803C178.203 378.803 188.303 382.303 192.303 390.703C196.303 399.103 192.803 409.203 184.403 413.203C176.003 417.203 165.903 413.703 161.903 405.303Z" fill="#21409A"/>
</svg>
